# xmcd
#
# Track frame offsets:
#	187
#	6660
#	66932
#	114985
#	171510
#	220910
#	228545
#
# Disc length: 3607 seconds
#
# Revision: 1
# Processed by: cddbd v1.5.1PL0 Copyright (c) Steve Scherf et al.
# Submitted via: CDex 1.50Beta5
#
DISCID=650e1507
DTITLE=宮村優子・岩田光央・他 - ぼくのマリー CDシネマ1「マリー誕生」
DYEAR=1900
DGENRE=Anime
TTITLE0=恋をするなら(ショート・バージョン)
TTITLE1=第1話:マリー誕生(デビュー)
TTITLE2=第2話:ダブルMARI対決!?
TTITLE3=第3話:あ・ぶ・な・いデートのおけいこ
TTITLE4=第4話:デートは命がけ!
TTITLE5=ぼくのマリー(ショート・バージョン)
TTITLE6=シークレット・ボーナス・ドラマPart1
EXTD=
EXTT0=
EXTT1=
EXTT2=
EXTT3=
EXTT4=
EXTT5=
EXTT6=
PLAYORDER=
